# xmcd
#
# Track frame offsets:
#	150
#	21276
#	44743
#	60492
#	81394
#	104507
#	122207
#	144940
#	160625
#	175469
#	193807
#	212092
#
# Disc length: 3112 seconds
# Revision: 0
# Processed by: cddbd v1.5.2PL0 Copyright (c) Steve Scherf et al.
# Submitted via: dBpowerAMP V12.0
#
DISCID=af0c260c
DTITLE=The Elms - Truth, Soul, Rock and Roll
DYEAR=2002
DGENRE=Rock
TTITLE0=Speaking In Tongues
TTITLE1=You Saved Me
TTITLE2=All The While Having Fun!
TTITLE3=Burn And Shine
TTITLE4=The First Day
TTITLE5=You Got No Room To Talk!
TTITLE6=Come To Me
TTITLE7=Let Love In
TTITLE8=Go Toward The Glow
TTITLE9=Through The Night
TTITLE10=Happiness
TTITLE11=Smile At Life Again
EXTD=
EXTT0=
EXTT1=
EXTT2=
EXTT3=
EXTT4=
EXTT5=
EXTT6=
EXTT7=
EXTT8=
EXTT9=
EXTT10=
EXTT11=
PLAYORDER=
